<?xml version="1.0" standalone="no"?>
<!DOCTYPE svg PUBLIC "-//W3C//DTD SVG 20010904//EN"
 "http://www.w3.org/TR/2001/REC-SVG-20010904/DTD/svg10.dtd">
<svg version="1.0" xmlns="http://www.w3.org/2000/svg"
 width="900.000000pt" height="900.000000pt" viewBox="0 0 900.000000 900.000000"
 preserveAspectRatio="xMidYMid meet">
<metadata>
Created by potrace 1.10, written by Peter Selinger 2001-2011
</metadata>
<g transform="translate(0.000000,900.000000) scale(0.100000,-0.100000)"
fill="#3f77fe" stroke="none">
<path d="M5161 8545 c-35 -53 -92 -134 -127 -180 -35 -47 -64 -87 -64 -90 0
-3 -121 -167 -270 -365 -148 -198 -270 -363 -270 -366 0 -4 -6 -12 -14 -18 -7
-6 -48 -58 -90 -116 -41 -58 -88 -120 -103 -138 -16 -19 -44 -57 -62 -85 -19
-28 -43 -59 -52 -68 -10 -10 -25 -32 -34 -48 -8 -17 -19 -31 -23 -31 -4 0 -30
-34 -57 -75 -28 -41 -53 -75 -57 -75 -4 0 -19 -20 -34 -45 -14 -25 -30 -45
-35 -45 -5 0 -9 -6 -9 -12 0 -7 -14 -28 -30 -47 -17 -18 -30 -37 -30 -40 0 -3
-10 -17 -22 -31 -13 -14 -34 -41 -48 -61 -14 -20 -35 -49 -48 -65 -12 -16
-369 -492 -793 -1059 -424 -566 -777 -1038 -785 -1048 -8 -10 -28 -37 -44 -60
-17 -23 -41 -55 -54 -72 -13 -16 -47 -59 -75 -94 -30 -38 -48 -68 -42 -74 5
-5 35 -3 72 3 47 9 400 11 1314 10 692 -1 1265 2 1284 7 50 13 49 30 -2 52
-49 21 -50 21 -1943 21 -485 0 -498 1 -505 40 -5 23 118 201 244 354 15 19 27
38 27 44 0 5 19 32 43 59 23 26 47 55 52 64 30 48 119 159 126 159 5 0 9 5 9
10 0 20 155 230 170 230 5 0 16 15 23 33 8 17 24 41 36 51 11 11 21 24 21 31
0 7 10 20 21 31 12 10 33 37 47 58 13 22 33 49 43 60 11 11 19 23 19 26 0 4 9
18 20 31 12 12 30 37 41 55 11 18 26 35 34 38 8 3 15 10 15 17 0 13 129 186
159 213 11 11 21 25 21 31 0 7 16 30 35 51 19 21 35 41 35 45 0 4 28 44 63 88
34 44 80 106 102 136 22 31 57 75 78 98 21 23 47 59 58 79 10 21 28 42 39 48
11 6 20 17 20 24 0 7 9 21 21 32 11 10 27 33 34 50 7 18 23 37 34 44 12 6 21
16 21 22 0 6 16 28 35 49 19 22 35 44 35 50 0 5 24 40 53 77 30 37 60 78 67
92 7 14 21 34 31 45 53 57 69 77 69 83 0 9 67 94 110 139 16 18 30 39 30 47 0
8 16 32 36 53 20 21 50 59 68 84 56 84 108 149 117 149 5 0 9 5 9 11 0 11 47
82 90 135 14 17 36 46 50 65 43 57 97 109 114 109 27 0 19 -34 -33 -142 -27
-57 -53 -117 -57 -133 -4 -17 -12 -41 -19 -55 -11 -24 -57 -124 -95 -205 -10
-22 -27 -61 -39 -86 -12 -25 -21 -49 -21 -54 0 -4 -18 -44 -39 -89 -56 -114
-101 -216 -101 -229 0 -6 -20 -51 -43 -101 -24 -50 -59 -125 -76 -166 -18 -41
-43 -97 -56 -125 -13 -27 -42 -93 -65 -145 -72 -166 -101 -229 -143 -320 -19
-41 -43 -96 -52 -122 -10 -27 -21 -48 -25 -48 -4 0 -15 -24 -25 -52 -9 -29
-35 -91 -57 -138 -72 -151 -88 -187 -88 -197 0 -6 -10 -32 -21 -58 -37 -85
-11 -157 71 -193 31 -14 172 -16 1220 -18 811 -1 1194 -6 1213 -13 30 -12 35
-32 12 -51 -8 -7 -15 -18 -15 -25 0 -7 -21 -40 -47 -73 -56 -71 -127 -164
-185 -242 -22 -30 -43 -57 -47 -60 -3 -3 -10 -13 -16 -22 -33 -55 -87 -128
-95 -128 -5 0 -17 -15 -26 -32 -9 -18 -36 -55 -59 -83 -22 -27 -49 -63 -59
-78 -10 -16 -34 -47 -54 -69 -20 -23 -46 -55 -57 -73 -11 -18 -34 -52 -52 -76
-18 -24 -47 -66 -65 -92 -18 -27 -44 -62 -58 -77 -14 -16 -38 -47 -55 -70 -16
-23 -42 -56 -57 -74 -16 -19 -28 -38 -28 -42 0 -5 -26 -41 -58 -81 -31 -39
-77 -101 -102 -137 -25 -36 -53 -68 -62 -71 -9 -3 -22 -20 -27 -38 -6 -18 -31
-55 -56 -82 -25 -28 -52 -64 -59 -82 -8 -17 -24 -34 -35 -38 -12 -3 -21 -11
-21 -16 0 -10 -171 -255 -209 -299 -12 -14 -30 -40 -41 -58 -11 -17 -24 -32
-28 -32 -5 0 -24 -24 -42 -52 -19 -29 -46 -67 -61 -84 -14 -18 -43 -57 -64
-88 -20 -31 -49 -69 -63 -84 -15 -16 -48 -60 -74 -98 -26 -38 -67 -94 -90
-124 -24 -30 -50 -65 -58 -76 -8 -12 -47 -64 -87 -115 -152 -199 -193 -254
-193 -261 0 -3 -24 -36 -52 -72 -29 -36 -66 -83 -82 -105 -17 -23 -35 -40 -40
-39 -13 3 -56 -37 -56 -52 0 -5 -5 -10 -11 -10 -6 0 -9 3 -7 8 19 38 30 66 49
120 12 34 26 62 30 62 5 0 9 10 9 21 0 12 18 62 41 112 23 51 50 112 61 137
11 25 33 73 49 107 16 35 29 68 29 74 0 6 23 54 50 107 28 52 50 99 50 104 0
8 65 161 120 283 13 28 29 64 36 80 16 38 42 97 93 208 23 49 41 94 41 100 0
6 23 57 50 113 28 56 50 106 50 110 0 4 18 44 39 88 22 45 53 115 71 156 17
41 47 107 65 146 19 39 35 77 35 84 0 7 8 29 18 49 35 69 61 126 67 151 4 14
11 30 15 35 5 6 16 39 25 74 12 49 14 70 6 88 -14 30 -27 22 -52 -31 -10 -22
-23 -48 -28 -56 -8 -14 -22 -43 -58 -127 -9 -21 -20 -45 -25 -53 -4 -8 -11
-22 -14 -30 -3 -8 -12 -28 -19 -45 -37 -85 -49 -112 -62 -137 -7 -14 -13 -33
-13 -41 0 -8 -7 -20 -15 -27 -8 -7 -15 -19 -15 -26 0 -8 -14 -45 -31 -82 -18
-37 -38 -83 -47 -102 -8 -19 -19 -42 -24 -50 -4 -8 -11 -22 -14 -30 -3 -8 -12
-31 -21 -50 -23 -51 -44 -100 -61 -140 -8 -19 -19 -42 -24 -50 -4 -8 -11 -22
-14 -30 -6 -18 -24 -60 -49 -115 -10 -22 -24 -53 -31 -70 -17 -41 -37 -88 -74
-170 -17 -38 -37 -83 -44 -100 -16 -36 -34 -77 -76 -170 -17 -38 -38 -85 -46
-102 -38 -88 -48 -110 -61 -135 -7 -14 -13 -33 -13 -41 0 -8 -7 -20 -15 -27
-8 -7 -15 -23 -15 -35 0 -12 -7 -28 -15 -35 -8 -7 -15 -18 -15 -25 0 -8 -8
-28 -17 -47 -9 -18 -22 -45 -30 -60 -7 -14 -13 -33 -13 -41 0 -8 -7 -20 -15
-27 -8 -7 -15 -23 -15 -35 0 -12 -7 -28 -15 -35 -8 -7 -15 -18 -15 -25 0 -8
-8 -28 -17 -47 -9 -18 -22 -45 -30 -60 -7 -14 -13 -33 -13 -41 0 -8 -7 -20
-15 -27 -8 -7 -15 -23 -15 -35 0 -12 -7 -28 -15 -35 -8 -7 -15 -18 -15 -25 0
-8 -6 -26 -14 -42 -8 -15 -22 -46 -32 -68 -9 -22 -21 -47 -26 -55 -4 -8 -11
-22 -14 -30 -3 -8 -12 -30 -20 -47 -8 -18 -21 -50 -30 -70 -10 -21 -21 -45
-26 -53 -4 -8 -11 -22 -14 -30 -15 -41 -148 -301 -155 -306 -5 -3 -9 -16 -9
-30 0 -17 5 -24 20 -24 11 0 20 6 20 13 0 8 8 23 18 35 9 11 24 30 32 42 8 13
33 48 55 79 23 31 51 73 64 94 12 20 27 37 32 37 5 0 9 5 9 10 0 6 107 153
238 328 130 174 245 328 255 342 10 14 37 50 60 81 23 32 56 77 74 100 18 24
42 55 54 69 12 14 35 46 51 73 16 26 34 47 39 47 5 0 9 7 9 15 0 8 4 15 9 15
5 0 23 21 39 48 16 26 42 61 56 77 15 17 34 42 42 58 8 15 19 27 24 27 6 0 10
6 10 13 0 6 14 27 30 46 17 18 30 37 30 40 0 3 10 17 23 31 12 14 33 41 47 61
14 20 35 49 48 65 12 16 227 304 477 639 250 336 461 617 468 626 33 39 137
179 168 227 18 28 37 52 40 52 4 0 21 22 37 48 16 26 36 54 44 62 8 8 32 40
53 70 21 30 41 57 45 60 9 7 88 112 133 178 22 31 44 61 51 67 6 5 27 34 46
62 19 29 38 53 42 53 4 0 14 13 22 29 8 15 37 55 64 87 27 32 57 74 67 92 11
17 22 32 26 32 4 0 18 17 30 38 19 31 93 123 137 170 6 7 12 18 12 23 0 5 -6
9 -12 9 -371 3 -2551 -2 -2615 -7 -88 -6 -93 -5 -93 14 0 11 9 28 20 38 11 10
20 26 20 35 0 10 7 23 15 30 8 7 15 20 15 30 0 10 7 23 15 30 8 7 15 20 15 29
0 9 14 45 32 81 17 36 37 79 44 95 6 17 19 46 27 65 9 19 18 42 21 50 3 8 10
22 15 30 5 8 17 33 26 55 10 22 24 52 32 67 7 14 13 33 13 41 0 8 7 20 15 27
8 7 15 23 15 35 0 12 7 28 15 35 8 7 15 18 15 25 0 8 6 26 14 42 8 15 21 44
29 63 32 74 50 116 59 130 4 8 11 22 14 30 7 19 28 68 81 188 9 20 22 49 30
64 7 14 13 33 13 42 0 9 4 16 10 16 5 0 13 12 16 28 7 27 16 48 48 109 9 17
16 38 16 46 0 8 7 20 15 27 8 7 15 23 15 35 0 12 7 28 15 35 8 7 15 18 15 25
0 8 8 28 17 47 9 18 22 45 30 60 7 14 13 33 13 41 0 8 7 20 15 27 8 7 15 23
15 35 0 12 7 28 15 35 8 7 15 19 15 27 0 8 6 27 14 41 7 15 21 43 29 62 9 19
30 67 47 105 17 39 38 84 45 100 7 17 27 60 44 98 17 37 31 73 31 81 0 7 7 19
15 26 8 7 15 19 15 27 0 8 6 27 14 41 15 29 41 88 50 112 3 8 10 22 14 30 5 8
16 31 24 50 8 19 23 53 33 75 10 22 24 56 33 75 8 19 19 42 24 50 4 8 11 22
14 30 47 114 182 395 209 433 18 26 20 67 2 67 -7 0 -41 -43 -76 -95z"/>
<path d="M5445 40 l-90 -6 110 -2 c74 -1 105 1 95 8 -8 5 -17 9 -20 8 -3 -1
-45 -5 -95 -8z"/>
<path d="M737 33 c282 -2 744 -2 1025 0 282 1 52 2 -512 2 -564 0 -794 -1
-513 -2z"/>
<path d="M2818 33 c288 -2 756 -2 1040 0 284 1 49 2 -523 2 -572 0 -805 -1
-517 -2z"/>
<path d="M4633 33 c131 -2 343 -2 470 0 128 1 21 2 -238 2 -258 0 -363 -1
-232 -2z"/>
</g>
</svg>
