<?xml version="1.0" standalone="no"?>
<!DOCTYPE svg PUBLIC "-//W3C//DTD SVG 20010904//EN"
 "http://www.w3.org/TR/2001/REC-SVG-20010904/DTD/svg10.dtd">
<svg version="1.0" xmlns="http://www.w3.org/2000/svg"
 width="300.000000pt" height="300.000000pt" viewBox="0 0 300.000000 300.000000"
 preserveAspectRatio="xMidYMid meet">
<metadata>
Created by potrace 1.10, written by Peter Selinger 2001-2011
</metadata>
<g transform="translate(0.000000,300.000000) scale(0.100000,-0.100000)"
fill="#3f77fe" stroke="none">
<path d="M1704 2823 c-38 -54 -1033 -1389 -1064 -1428 -6 -7 144 -10 445 -10
249 0 452 -2 450 -5 -2 -3 -109 -245 -239 -538 -130 -294 -246 -552 -257 -575
-12 -23 -19 -40 -16 -37 2 3 211 282 464 620 252 338 503 674 557 745 l97 130
-449 5 -450 5 247 555 c136 305 253 565 259 578 24 42 4 22 -44 -45z m-74
-162 c0 -6 -4 -13 -10 -16 -5 -3 -10 -12 -10 -20 0 -7 -13 -42 -29 -77 -30
-66 -154 -343 -251 -563 -32 -71 -69 -155 -83 -186 -43 -95 -68 -89 416 -89
364 -1 417 -2 417 -16 0 -8 -120 -175 -267 -372 -146 -196 -285 -382 -307
-412 -23 -30 -43 -57 -46 -60 -3 -3 -17 -21 -30 -40 -14 -19 -56 -76 -95 -127
-38 -50 -88 -117 -110 -148 -22 -32 -52 -71 -68 -89 l-27 -31 29 65 c70 157
115 258 201 455 51 116 104 237 119 270 15 33 38 86 51 117 36 89 42 87 -243
87 -133 0 -325 0 -425 0 l-184 1 38 53 c20 28 68 93 106 142 38 50 94 125 126
167 502 676 668 897 675 897 4 1 7 -3 7 -8z"/>
<path d="M468 13 c261 -2 684 -2 940 0 257 1 44 2 -473 2 -517 0 -727 -1 -467
-2z"/>
</g>
</svg>
