<?xml version="1.0" standalone="no"?>
<!DOCTYPE svg PUBLIC "-//W3C//DTD SVG 20010904//EN"
 "http://www.w3.org/TR/2001/REC-SVG-20010904/DTD/svg10.dtd">
<svg version="1.0" xmlns="http://www.w3.org/2000/svg"
 width="300.000000pt" height="300.000000pt" viewBox="0 0 300.000000 300.000000"
 preserveAspectRatio="xMidYMid meet">
<metadata>
Created by potrace 1.10, written by Peter Selinger 2001-2011
</metadata>
<g transform="translate(0.000000,300.000000) scale(0.050000,-0.050000)"
fill="#3f77fe" stroke="none">
<path d="M3454 5715 c-27 -36 -120 -164 -208 -285 -88 -121 -564 -760 -1058
-1420 -494 -660 -905 -1211 -914 -1224 -12 -19 178 -24 885 -20 496 2 901 -3
901 -11 0 -21 -870 -1976 -952 -2140 -102 -202 -74 -186 104 59 86 119 585
788 1107 1486 523 699 954 1277 958 1285 3 8 -400 15 -897 15 -716 0 -902 5
-893 25 240 542 919 2049 950 2111 92 178 100 230 17 119z m-821 -1458 c-31
-17 -33 -25 -10 -39 21 -13 18 -18 -13 -19 -40 -2 -40 -2 0 -19 37 -16 37 -17
3 -19 -25 -1 -33 -11 -26 -31 7 -16 4 -30 -6 -30 -19 0 -52 -78 -45 -105 2 -8
-5 -15 -15 -15 -11 0 -15 -12 -9 -27 6 -16 -1 -40 -16 -55 -29 -31 -73 -139
-88 -218 -6 -27 -19 -53 -29 -57 -11 -3 -19 -28 -19 -53 0 -26 -9 -53 -19 -59
-32 -20 158 -189 226 -201 35 -6 257 -15 493 -19 237 -4 507 -11 600 -16 94
-4 180 0 193 10 66 49 54 -83 -15 -165 -23 -27 -35 -37 -27 -22 10 19 7 23 -8
14 -13 -8 -19 -23 -12 -33 6 -10 -11 -41 -38 -68 -27 -27 -44 -53 -38 -59 5
-6 -13 -21 -42 -34 -29 -14 -53 -36 -53 -51 0 -14 -27 -56 -60 -94 -33 -38
-60 -83 -60 -102 0 -18 -9 -28 -20 -21 -11 7 -26 -4 -34 -24 -7 -20 -25 -43
-40 -52 -15 -9 -22 -25 -15 -35 6 -11 4 -19 -5 -19 -9 0 -37 -40 -64 -90 -26
-49 -55 -84 -65 -78 -9 6 -17 -3 -17 -20 0 -17 -18 -40 -41 -52 -22 -12 -35
-30 -30 -39 6 -9 -3 -22 -19 -28 -17 -7 -30 -31 -30 -54 0 -23 -9 -36 -20 -29
-11 7 -34 -2 -52 -19 -22 -22 -24 -31 -5 -31 17 0 14 -11 -9 -35 -31 -31 -38
-31 -54 -5 -25 40 -25 60 1 60 12 0 16 17 10 38 -7 21 -3 45 9 52 11 7 15 21
9 31 -6 11 -1 19 11 19 12 0 17 8 11 18 -6 9 3 29 19 42 17 14 30 44 30 68 0
24 8 53 18 63 51 54 119 349 80 349 -10 0 -18 10 -18 22 0 43 -124 140 -162
127 -21 -6 -47 -6 -58 1 -35 22 -880 22 -882 0 -1 -13 -4 -13 -10 0 -4 12 -75
18 -169 15 -126 -5 -159 0 -147 20 11 20 8 20 -13 0 -18 -17 -34 -18 -51 -3
-30 25 43 178 86 178 14 0 26 14 26 31 0 18 11 44 25 58 63 65 115 133 115
149 0 10 28 44 61 75 34 31 73 84 88 117 14 33 54 89 88 125 35 35 64 80 64
100 2 30 4 29 19 -5 15 -35 17 -34 19 15 0 35 12 55 31 55 17 0 30 18 30 41 0
22 14 45 30 52 17 6 30 22 30 34 0 20 66 102 200 248 23 25 52 45 66 44 13 0
7 -10 -13 -22z m322 -2289 c-24 -54 -68 -77 -68 -36 0 15 7 28 16 28 10 0 17
17 17 37 0 47 23 70 42 40 8 -13 5 -44 -7 -69z"/>
<path d="M937 25 c520 -3 1366 -3 1880 0 513 3 87 5 -947 5 -1034 0 -1454 -2
-933 -5z"/>
</g>
</svg>
