 <svg  version="1.0" xmlns="http://www.w3.org/2000/svg"  width="300.000000pt" height="300.000000pt" viewBox="0 0 300.000000 300.000000"  preserveAspectRatio="xMidYMid meet">  <g transform="translate(0.000000,300.000000) scale(0.100000,-0.100000)" fill="#3f77fe" stroke="none"> <path d="M1700 2817 c-34 -48 -1027 -1380 -1060 -1422 -6 -7 144 -10 445 -9 l452 0 -27 -60 c-68 -152 -475 -1071 -479 -1081 -2 -5 58 73 134 175 373 500 819 1097 893 1195 l83 110 -451 3 c-355 2 -451 5 -447 15 205 460 487 1088 496 1105 25 47 4 30 -39 -31z m-113 -234 c-2 -5 -11 -24 -19 -43 -9 -19 -38 -87 -67 -151 -28 -64 -51 -119 -51 -121 0 -3 -20 -49 -45 -102 -25 -52 -64 -137 -86 -188 -105 -237 -108 -247 -68 -268 10 -6 178 -10 418 -10 221 0 401 -3 401 -6 0 -13 -29 -56 -104 -154 -103 -135 -97 -128 -281 -375 -86 -115 -164 -220 -173 -232 -9 -13 -80 -108 -157 -212 -77 -103 -148 -193 -157 -199 -13 -9 -9 8 16 66 68 156 188 429 216 489 59 125 120 274 120 292 0 39 -14 41 -429 41 -336 1 -403 3 -407 15 -3 8 57 98 146 217 83 112 159 214 168 227 9 13 27 35 38 50 12 14 58 76 103 136 45 61 88 117 94 125 7 9 28 38 47 65 18 28 36 52 40 55 3 3 46 59 95 125 100 135 125 165 137 165 5 0 7 -3 5 -7z"/> <path d="M247 13 c95 -2 251 -2 345 0 95 1 18 3 -172 3 -190 0 -267 -2 -173 -3z"/> <path d="M937 13 c94 -2 252 -2 350 0 98 1 21 2 -172 2 -192 1 -273 -1 -178 -2z"/> <path d="M1548 13 c46 -2 118 -2 160 0 42 1 5 3 -83 3 -88 0 -123 -2 -77 -3z"/> <path d="M1808 13 c12 -2 30 -2 40 0 9 3 -1 5 -23 4 -22 0 -30 -2 -17 -4z"/> </g> </svg> 